<?xml version="1.0" encoding="utf-8"?>
<!-- Generator: Adobe Illustrator 21.1.0, SVG Export Plug-In . SVG Version: 6.00 Build 0)  -->
<svg version="1.1" id="Layer_1" xmlns="http://www.w3.org/2000/svg" xmlns:xlink="http://www.w3.org/1999/xlink" x="0px" y="0px"
	 viewBox="0 0 102 102" style="enable-background:new 0 0 102 102;" xml:space="preserve">
<style type="text/css">
	.st0{fill:#12B3C4;}
</style>
<g>
	<path class="st0" d="M91.6,90c-0.7-4.1-2.9-14.1-2.9-26.3V24c0-7.7-6.3-14-14-14H24.3c-7.7,0-14,6.3-14,14v50.5c0,7.7,6.3,14,14,14
		h33.5c7.9,0.5,22.4,1.5,31.8,3.5C90.8,92.2,91.8,91.2,91.6,90z M17.5,74.5V24c0-3.8,3.1-6.8,6.8-6.8h50.5c3.8,0,6.8,3.1,6.8,6.8
		v50.5c0,3.8-3.1,6.8-6.8,6.8H24.3C20.5,81.3,17.5,78.2,17.5,74.5z"/>
	<rect x="26.7" y="32.1" class="st0" width="27" height="8"/>
	<rect x="26.7" y="58.4" class="st0" width="35.7" height="8"/>
	<rect x="26.7" y="45.2" class="st0" width="44.4" height="8"/>
</g>
</svg>
